{"title":"BangBus - Only 18 about to film her first porno without knowing","uid":9901347,"size":685063263,"categoryP":"porn","categoryS":"movies","magnet":"?xt=urn:btih:4609fb50e811726524aec1e0bc738341788f740d&amp;dn=+BangBus+-+Only+18+about+to+film+her+first+porno+without+knowing&amp;tr=udp%3A%2F%2Ftracker.openbittorrent.com%3A80&amp;tr=udp%3A%2F%2Fopen.demonii.com%3A1337&amp;tr=udp%3A%2F%2Ftracker.coppersurfer.tk%3A6969&amp;tr=udp%3A%2F%2Fexodus.desync.com%3A6969","seeders":1,"leechers":0,"uploader":"2bUnique","files":1,"time":1396776007,"description":"Description &lt;a href=&quot;\nhttp://new.bangbros.com/videos/she-is-only-18-about-to-film-her-first-porno-without-knowing-it_114645.htm&quot; rel=&quot;nofollow&quot; target=&quot;_NEW&quot;&gt;\nhttp://new.bangbros.com/videos/she-is-only-18-about-to-film-her-first-porno-without-knowing-it_114645.htm&lt;/a&gt;\n\nI officially found my favorite girl for the bus today. This is Gulliana is half Italian and half Greek. This girl was so fucking exotic with killer legs and ass and she hoped on the bus with the intention of showing us all. Anyway we made our money offers which eventually led to Brick eating her out for like half of an hour until I had to tell him to stop already and start fucking her! It was one of the most intense scenes I had to film and couldn't keep thinking of jumping right in.\n\nProducer: Bangbros\nProd. Date: Feb. 27, 2013\n\nGeneral\nFormat : MPEG-4\nFormat profile : Base Media\nCodec ID : isom\nFile size : 653 MiB\nDuration : 58mn 47s\nOverall bit rate mode : Variable\nOverall bit rate : 1 553 Kbps\n\nVideo\nID : 1\nFormat : AVC\nFormat/Info : Advanced Video Codec\nFormat profile : &lt;a class=&quot;__cf_email__&quot; href=&quot;/cdn-cgi/l/email-protection&quot; data-cfemail=&quot;c588a4acab8589f6ebf4&quot;&gt;[email&amp;#160;protected]&lt;/a&gt;&lt;script cf-hash='f9e31' type=&quot;text/javascript&quot;&gt;\n/* &lt;![CDATA[ */!function(){try{var t=&quot;currentScript&quot;in document?document.currentScript:function(){for(var t=document.getElementsByTagName(&quot;script&quot;),e=t.length;e--;)if(t[e].getAttribute(&quot;cf-hash&quot;))return t[e]}();if(t&amp;&amp;t.previousSibling){var e,r,n,i,c=t.previousSibling,a=c.getAttribute(&quot;data-cfemail&quot;);if(a){for(e=&quot;&quot;,r=parseInt(a.substr(0,2),16),n=2;a.length-n;n+=2)i=parseInt(a.substr(n,2),16)^r,e+=String.fromCharCode(i);e=document.createTextNode(e),c.parentNode.replaceChild(e,c)}}}catch(u){}}();/* ]]&gt; */&lt;/script&gt;\nFormat settings, CABAC : Yes\nFormat settings, ReFrames : 6 frames\nCodec ID : avc1\nCodec ID/Info : Advanced Video Coding\nDuration : 58mn 47s\nBit rate : 1 500 Kbps\nWidth : 852 pixels\nHeight : 480 pixels\nDisplay aspect ratio : 16:9\nFrame rate mode : Constant\nFrame rate : 29.970 fps\nColor space : YUV\nChroma subsampling : 4:2:0\nBit depth : 8 bits\nScan type : Progressive\nBits/(Pixel*Frame) : 0.122\nStream size : 626 MiB (96%)\nWriting library : x264 core 124 r2019+178 69a0443\nLanguage : English\n\n\nAudio\nID : 2\nFormat : AAC\nFormat/Info : Advanced Audio Codec\nFormat profile : LC\nCodec ID : 40\nDuration : 58mn 47s\nBit rate mode : Variable\nBit rate : 57.1 Kbps\nMaximum bit rate : 96.0 Kbps\nChannel(s) : 2 channels\nChannel positions : Front: L R\nSampling rate : 44.1 KHz\nCompression mode : Lossy\nStream size : 24.0 MiB (4%)\nLanguage : English","torrent":{"xt":"urn:btih:4609fb50e811726524aec1e0bc738341788f740d","amp;dn":"+BangBus+-+Only+18+about+to+film+her+first+porno+without+knowing","amp;tr":["udp%3A%2F%2Ftracker.openbittorrent.com%3A80","udp%3A%2F%2Fopen.demonii.com%3A1337","udp%3A%2F%2Ftracker.coppersurfer.tk%3A6969","udp%3A%2F%2Fexodus.desync.com%3A6969"],"infoHash":"4609fb50e811726524aec1e0bc738341788f740d","infoHashBuffer":{"type":"Buffer","data":[70,9,251,80,232,17,114,101,36,174,193,224,188,115,131,65,120,143,116,13]},"announce":[],"urlList":[]}}